<svg width="19" height="19" viewBox="0 0 19 19" fill="none" xmlns="http://www.w3.org/2000/svg">
<path d="M18.7798 17.7203L14.3031 13.2435C15.5231 11.7515 16.1229 9.84758 15.9785 7.92568C15.8341 6.00378 14.9565 4.21091 13.5273 2.9179C12.0981 1.62489 10.2265 0.930677 8.29982 0.978851C6.37311 1.02702 4.53862 1.8139 3.1758 3.17672C1.81298 4.53954 1.02611 6.37403 0.977935 8.30074C0.929762 10.2275 1.62398 12.099 2.91698 13.5282C4.20999 14.9574 6.00287 15.835 7.92476 15.9794C9.84666 16.1238 11.7505 15.524 13.2426 14.304L17.7193 18.7808C17.8608 18.9174 18.0502 18.993 18.2469 18.9913C18.4435 18.9896 18.6317 18.9107 18.7707 18.7716C18.9098 18.6326 18.9886 18.4445 18.9904 18.2478C18.9921 18.0512 18.9165 17.8617 18.7798 17.7203ZM8.49959 14.5005C7.3129 14.5005 6.15287 14.1486 5.16617 13.4893C4.17948 12.83 3.41044 11.893 2.95632 10.7966C2.50219 9.70025 2.38337 8.49385 2.61488 7.32997C2.84639 6.16608 3.41784 5.09698 4.25695 4.25787C5.09607 3.41875 6.16516 2.84731 7.32905 2.6158C8.49294 2.38428 9.69934 2.5031 10.7957 2.95723C11.892 3.41136 12.8291 4.18039 13.4884 5.16709C14.1477 6.15378 14.4996 7.31382 14.4996 8.50051C14.4978 10.0913 13.8651 11.6163 12.7403 12.7412C11.6154 13.866 10.0903 14.4987 8.49959 14.5005Z" fill="white"/>
</svg>
